PathFileType	4	(X/Y/Z)	Walk1.trc
DataRate	CameraRate	NumFrames	NumMarkers	Units	OrigDataRate	OrigDataStartFrame	OrigNumFrames
200.000000	200.000000	4	59	mm	200.000000	161	485
Frame#	Times		LFHD		RFHD		LBHD		RBHD		C7		T10		CLAV		STRN		RBack		LASI		RASI		LPSI		RPSI		RACR1		RUA1		RElbow		RElbowM		RFA1		RWRR		RWRU		RCAR		LACR1		LUA1		LElbow		LElbowM		LFA1		LWRR		LCAR		RTH1		RTH3		RTH2		RTH4		RLFC		RTB1		RTB3		RTB2		RTB4		RLMAL		RMT1		RMT5		LTH1		LTH3		LTH2		LTH4		LLFC		LTB1		LTB3		LTB2		LTB4		LLMAL		LMMAL		LMT1		LMT5		LToe		RMMAL		LWRU		RToe		LCAL		RCAL
			X1	Y1	Z1	X2	Y2	Z2	X3	Y3	Z3	X4	Y4	Z4	X5	Y5	Z5	X6	Y6	Z6	X7	Y7	Z7	X8	Y8	Z8	X9	Y9	Z9	X10	Y10	Z10	X11	Y11	Z11	X12	Y12	Z12	X13	Y13	Z13	X14	Y14	Z14	X15	Y15	Z15	X16	Y16	Z16	X17	Y17	Z17	X18	Y18	Z18	X19	Y19	Z19	X20	Y20	Z20	X21	Y21	Z21	X22	Y22	Z22	X23	Y23	Z23	X24	Y24	Z24	X25	Y25	Z25	X26	Y26	Z26	X27	Y27	Z27	X28	Y28	Z28	X29	Y29	Z29	X30	Y30	Z30	X31	Y31	Z31	X32	Y32	Z32	X33	Y33	Z33	X34	Y34	Z34	X35	Y35	Z35	X36	Y36	Z36	X37	Y37	Z37	X38	Y38	Z38	X39	Y39	Z39	X40	Y40	Z40	X41	Y41	Z41	X42	Y42	Z42	X43	Y43	Z43	X44	Y44	Z44	X45	Y45	Z45	X46	Y46	Z46	X47	Y47	Z47	X48	Y48	Z48	X49	Y49	Z49	X50	Y50	Z50	X51	Y51	Z51	X52	Y52	Z52	X53	Y53	Z53	X54	Y54	Z54	X55	Y55	Z55	X56	Y56	Z56	X57	Y57	Z57	X58	Y58	Z58	X59	Y59	Z59

161	0.805	-538.51	1566.9	-59.997	-522.67	1569.5	33.327	-688.89	1507.9	-64.019	-671.12	1518.7	75.899	-711.28	1388.7	6.4268	-781.73	1121.6	-8.121	-573	1311	-5.9602	-512.85	1206.3	-3.5995	-760.63	1288.8	110.53	-516.78	932.12	-139.22	-533.44	947.66	155.94	-768.99	931.46	-57.997	-774.82	940.69	30.351	-635.22	1344	151.31	-617.24	1169.2	250.56	-638.67	1044.8	286.79	-650.3	1005.6	197.27	-579.89	909.5	309.33	-467.73	848.59	275.1	-517.02	818.6	317.94	-440.1	807.93	329.88	-641.79	1348.2	-162	-698.29	1173.6	-254	-766.58	1061.6	-271.82	-788.27	1044.5	-194.91	-806.02	933.06	-294.37	-762.85	802.99	-274.58	-780.66	758.59	-317.6	-646.8	718.13	212.93	-710.53	566.85	160.46	-626.94	629.16	164.29	-680.68	641.89	185.37	-748.34	486.64	137.37	-767.83	326.28	59.198	-843.38	170.73	52.95	-827.8	258.07	111.17	-805.82	247.4	52.846	-922.27	78.598	72.534	-816.02	30.502	13.465	-850.21	21.716	87.901	-582.66	719.76	-217.14	-512.86	572.55	-161.76	-497.4	677.24	-176.88	-548.53	647.82	-185.85	-468.97	466.63	-125.55	-372.33	355.56	-51.89	-326.72	189.49	-57.186	-371.51	266.17	-110.23	-350.33	271.88	-53.016	-327.05	69.529	-81.92	-310.5	82.141	0.17743	-203.88	80.808	-21.888	-228	54.772	-91.03	-148.08	104.46	-53.275	-904.6	84.483	-9.4867	-824.47	817.57	-309.53	-748.55	18.777	45.531	-373.63	21.681	-40.799	-991.4	60.931	36.09
162	0.81	-532.8	1566.3	-60.586	-516.97	1568.8	32.979	-683.11	1507	-64.604	-665.38	1518	75.342	-705.08	1387.9	5.9948	-775.3	1120.7	-8.617	-566.52	1310.5	-6.2736	-506.36	1205.7	-3.8522	-754.5	1288	109.87	-509.87	931.63	-139.27	-527.03	946.97	155.95	-762.42	930.95	-58.734	-768.44	940.14	29.747	-629.24	1343.3	150.9	-611.64	1168.5	250.02	-632.56	1044	286.29	-644.48	1004.7	196.83	-573.96	908.84	308.54	-461.69	848.14	274.4	-511.05	817.72	317.34	-434.21	807.32	329.32	-635.52	1347.4	-162.54	-691.94	1172.6	-254.36	-760.52	1060.9	-272.09	-782.09	1043.7	-194.97	-800.28	932.28	-294.16	-757.44	802.37	-274.84	-775.42	757.82	-317.82	-641.13	717.53	212.73	-705.23	566.61	160.47	-621.54	628.38	164.22	-675.04	641.28	185.12	-743.27	486.27	137.18	-764.05	325.93	58.858	-841.65	171.14	53.091	-824.39	257.8	111.49	-803	247.41	52.629	-921.37	79.872	72.983	-815.83	30.701	13.577	-850.01	21.963	88.013	-575.94	719.06	-217.02	-506.12	572.3	-161.62	-490.62	676.57	-176.64	-541.94	647.32	-185.61	-462.23	466.24	-125.5	-366.57	354.37	-51.286	-321.96	187.8	-56.474	-366.05	264.82	-109.6	-345.09	270.38	-52.457	-323.08	67.905	-81.164	-306.74	80.331	1.0025	-200.13	78.657	-21.317	-224.52	52.575	-90.265	-144.11	101.72	-52.275	-903.86	85.63	-9.1239	-819.24	816.87	-309.46	-748.5	18.699	45.47	-370.45	21.233	-40.38	-990.98	63.198	36.424
163	0.815	-527.21	1565.9	-61.275	-511.21	1568.2	32.351	-677.27	1506.4	-65.097	-659.47	1517.1	74.809	-699.16	1387.1	5.2466	-768.94	1119.9	-9.1024	-560.35	1309.8	-6.8045	-500.13	1205.1	-4.2132	-748.29	1287.2	109.18	-502.85	931.03	-139.47	-521.09	946.27	155.76	-755.95	930.45	-59.273	-761.63	939.31	29.257	-623.42	1342.7	150.29	-605.75	1167.7	249.57	-626.95	1043.3	285.74	-638.82	1004	196.2	-568.31	908.09	307.83	-455.97	847.29	273.91	-505.42	817.04	316.56	-428.37	806.68	328.69	-629.29	1346.6	-163.1	-685.66	1171.8	-254.77	-754.4	1060	-272.33	-775.94	1042.8	-195	-794.31	931.53	-294.23	-752.01	801.48	-274.95	-770.18	757.07	-317.89	-635.24	716.94	212.52	-699.66	566.06	160.25	-615.88	627.67	164.02	-669.65	640.75	184.75	-738.09	486.01	136.85	-760.16	325.63	58.588	-839.6	171.63	53.217	-820.81	257.62	111.74	-799.98	247.5	52.547	-920.29	81.286	73.384	-815.69	30.98	13.534	-849.68	22.467	88.556	-569.34	718.58	-216.86	-499.34	571.77	-161.54	-484.03	676.13	-176.66	-534.98	646.87	-185.37	-455.38	465.51	-125.63	-360.71	352.73	-50.598	-317.74	185.98	-55.702	-360.86	263.36	-109.04	-339.94	268.72	-51.911	-319.68	66.117	-80.327	-303.66	78.156	1.8086	-197.05	75.458	-20.219	-222.26	49.778	-89.24	-140.52	97.859	-50.992	-903.08	86.853	-8.8199	-813.59	816.16	-309.4	-748.42	18.603	45.434	-368.3	20.815	-39.938	-990.15	65.386	37.235
164	0.82	-521.34	1565.5	-61.703	-505.4	1567.8	31.876	-671.29	1505.6	-65.558	-653.71	1516.3	74.046	-693.12	1386.5	4.4665	-762.54	1119.1	-9.7389	-554.25	1309.3	-7.3052	-494.04	1204.5	-4.7238	-742.11	1286.5	108.48	-495.91	930.58	-139.44	-514.67	945.36	155.44	-749.11	929.9	-59.737	-754.76	938.48	28.734	-617.51	1342.2	149.71	-600.02	1167.1	249.05	-621.56	1042.6	285.12	-632.99	1003.4	195.47	-562.95	907.3	307.24	-449.84	846.62	273.24	-499.86	816.38	315.75	-422.99	805.95	327.93	-623.04	1345.9	-163.65	-679.29	1170.9	-255.2	-748.3	1059.2	-272.58	-769.71	1041.8	-195.2	-788.39	930.98	-294.65	-746.55	800.61	-274.92	-764.72	756.15	-317.77	-629.47	716.27	212.44	-694.18	565.46	160.15	-610.21	627.05	164.2	-663.84	640.26	184.74	-732.64	485.51	136.76	-756.42	325.42	58.184	-837.39	172.23	53.324	-817.41	258.09	111.56	-797.09	247.62	52.588	-919.38	82.904	73.814	-815.55	31.234	13.496	-849.31	22.911	88.975	-562.58	718.25	-216.74	-492.74	571.27	-161.54	-477.22	675.9	-176.57	-528.4	646.42	-185.26	-448.53	464.91	-125.49	-354.76	351.32	-50.084	-313.64	183.98	-54.86	-356.07	261.71	-108.35	-334.85	267.03	-51.089	-317.1	64.326	-79.251	-300.89	75.42	2.9824	-194.79	70.628	-19.075	-220.65	46.185	-88.432	-136.4	90.896	-48.815	-902.17	88.106	-8.4549	-807.79	815.49	-309.77	-748.31	18.557	45.341	-367.32	21.375	-39.482	-989.6	67.976	37.556
